<svg id="svg" xmlns="http://www.w3.org/2000/svg" xmlns:xlink="http://www.w3.org/1999/xlink" width="400" height="400" viewBox="0, 0, 400,271.0691823899371"><g id="svgg"><path id="path0" d="M334.915 1.356 C 334.915 1.517,333.921 1.627,332.475 1.627 C 331.028 1.627,330.034 1.738,330.034 1.898 C 330.034 2.049,329.317 2.169,328.426 2.169 C 327.359 2.169,326.682 2.306,326.412 2.576 C 326.185 2.803,325.522 2.983,324.917 2.983 C 324.318 2.983,323.753 3.105,323.661 3.254 C 323.569 3.403,322.951 3.525,322.289 3.525 C 321.627 3.525,321.085 3.647,321.085 3.797 C 321.085 3.946,320.536 4.068,319.864 4.068 C 318.960 4.068,318.644 4.173,318.644 4.475 C 318.644 4.776,318.328 4.881,317.424 4.881 C 316.753 4.881,316.203 5.003,316.203 5.153 C 316.203 5.302,315.776 5.424,315.254 5.424 C 314.732 5.424,314.305 5.546,314.305 5.695 C 314.305 5.844,313.752 5.966,313.076 5.966 C 312.234 5.966,311.798 6.094,311.691 6.373 C 311.605 6.597,311.304 6.780,311.022 6.780 C 310.739 6.780,310.508 6.902,310.508 7.051 C 310.508 7.200,310.081 7.322,309.559 7.322 C 309.037 7.322,308.610 7.444,308.610 7.593 C 308.610 7.742,308.373 7.864,308.084 7.864 C 307.794 7.864,307.482 7.986,307.390 8.136 C 307.298 8.285,306.933 8.407,306.580 8.407 C 306.226 8.407,305.754 8.590,305.530 8.814 C 305.307 9.037,304.932 9.220,304.697 9.220 C 304.463 9.220,304.271 9.342,304.271 9.492 C 304.271 9.641,304.129 9.763,303.956 9.763 C 303.449 9.763,301.559 10.660,301.559 10.900 C 301.559 11.020,301.315 11.119,301.017 11.119 C 300.719 11.119,300.475 11.241,300.475 11.390 C 300.475 11.539,300.289 11.661,300.062 11.661 C 299.601 11.661,297.406 12.970,297.266 13.329 C 297.216 13.456,296.972 13.563,296.723 13.568 C 296.156 13.579,295.322 14.197,295.322 14.606 C 295.322 14.776,295.044 14.915,294.704 14.915 C 294.364 14.915,293.910 15.159,293.695 15.458 C 293.480 15.756,293.116 16.000,292.887 16.000 C 292.657 16.000,292.104 16.424,291.658 16.943 C 291.212 17.462,290.651 17.889,290.411 17.892 C 290.171 17.896,289.745 18.203,289.465 18.576 C 289.185 18.949,288.854 19.254,288.730 19.254 C 288.468 19.254,287.729 19.950,287.729 20.196 C 287.729 20.477,286.416 21.695,286.114 21.695 C 285.958 21.695,285.831 21.851,285.831 22.042 C 285.831 22.233,285.586 22.565,285.288 22.780 C 284.990 22.995,284.746 23.388,284.746 23.653 C 284.746 23.918,284.563 24.136,284.339 24.136 C 284.115 24.136,283.932 24.263,283.932 24.419 C 283.932 24.787,282.686 26.034,282.317 26.034 C 282.161 26.034,282.034 26.161,282.034 26.317 C 282.034 26.686,280.787 27.932,280.419 27.932 C 280.263 27.932,280.136 28.060,280.136 28.216 C 280.136 28.584,278.889 29.831,278.521 29.831 C 278.365 29.831,278.237 29.958,278.237 30.114 C 278.237 30.482,276.991 31.729,276.622 31.729 C 276.467 31.729,276.339 31.856,276.339 32.012 C 276.339 32.380,275.092 33.627,274.724 33.627 C 274.568 33.627,274.441 33.810,274.441 34.034 C 274.441 34.258,274.319 34.441,274.169 34.441 C 273.992 34.441,273.898 29.650,273.898 20.610 C 273.898 11.571,273.804 6.780,273.627 6.780 C 273.478 6.780,273.356 6.353,273.356 5.831 C 273.356 5.168,273.233 4.881,272.949 4.881 C 272.718 4.881,272.542 4.638,272.542 4.320 C 272.542 3.600,271.925 2.983,271.206 2.983 C 270.887 2.983,270.644 2.807,270.644 2.576 C 270.644 2.292,270.358 2.169,269.695 2.169 C 269.173 2.169,268.746 2.047,268.746 1.898 C 268.746 1.523,207.554 1.523,207.322 1.898 C 207.230 2.047,206.792 2.169,206.348 2.169 C 205.882 2.169,205.477 2.341,205.386 2.576 C 205.300 2.800,205.062 2.983,204.855 2.983 C 204.290 2.983,203.390 3.853,203.390 4.399 C 203.390 4.664,203.268 4.881,203.119 4.881 C 202.969 4.881,202.847 5.125,202.847 5.424 C 202.847 5.722,202.725 5.966,202.576 5.966 C 202.427 5.966,202.305 6.149,202.305 6.373 C 202.305 6.597,202.179 6.780,202.025 6.780 C 201.659 6.780,197.966 10.472,197.966 10.838 C 197.966 10.992,197.839 11.119,197.683 11.119 C 197.314 11.119,196.068 12.365,196.068 12.733 C 196.068 12.889,195.940 13.017,195.784 13.017 C 195.416 13.017,194.169 14.264,194.169 14.632 C 194.169 14.788,194.042 14.915,193.886 14.915 C 193.518 14.915,192.271 16.162,192.271 16.530 C 192.271 16.686,192.144 16.814,191.988 16.814 C 191.620 16.814,190.373 18.060,190.373 18.428 C 190.373 18.584,190.245 18.712,190.089 18.712 C 189.721 18.712,188.475 19.959,188.475 20.327 C 188.475 20.483,188.347 20.610,188.191 20.610 C 187.823 20.610,186.576 21.857,186.576 22.225 C 186.576 22.381,186.450 22.508,186.296 22.508 C 185.931 22.508,184.136 24.304,184.136 24.669 C 184.136 24.823,184.005 24.949,183.845 24.949 C 183.366 24.949,182.780 25.685,182.780 26.286 C 182.780 26.595,182.658 26.847,182.508 26.847 C 182.359 26.847,182.237 27.078,182.237 27.361 C 182.237 27.643,182.054 27.944,181.831 28.030 C 181.607 28.116,181.424 28.434,181.424 28.737 C 181.424 29.040,181.302 29.288,181.153 29.288 C 181.003 29.288,180.881 29.593,180.881 29.966 C 180.881 30.339,180.759 30.644,180.610 30.644 C 180.461 30.644,180.339 31.071,180.339 31.593 C 180.339 32.256,180.216 32.542,179.932 32.542 C 179.706 32.542,179.525 32.783,179.525 33.085 C 179.525 33.383,179.403 33.627,179.254 33.627 C 179.105 33.627,178.983 33.932,178.983 34.305 C 178.983 34.678,178.861 34.983,178.712 34.983 C 178.563 34.983,178.441 35.288,178.441 35.661 C 178.441 36.083,178.287 36.339,178.034 36.339 C 177.808 36.339,177.627 36.580,177.627 36.881 C 177.627 37.180,177.505 37.424,177.356 37.424 C 177.207 37.424,177.085 37.729,177.085 38.102 C 177.085 38.475,176.963 38.780,176.814 38.780 C 176.664 38.780,176.542 39.011,176.542 39.293 C 176.542 39.575,176.359 39.877,176.136 39.962 C 175.912 40.048,175.729 40.366,175.729 40.669 C 175.729 40.972,175.607 41.220,175.458 41.220 C 175.308 41.220,175.186 41.525,175.186 41.898 C 175.186 42.271,175.064 42.576,174.915 42.576 C 174.766 42.576,174.644 42.807,174.644 43.090 C 174.644 43.372,174.461 43.673,174.237 43.759 C 174.014 43.845,173.831 44.163,173.831 44.466 C 173.831 44.769,173.708 45.017,173.559 45.017 C 173.410 45.017,173.288 45.322,173.288 45.695 C 173.288 46.068,173.166 46.373,173.017 46.373 C 172.868 46.373,172.746 46.604,172.746 46.886 C 172.746 47.169,172.563 47.470,172.339 47.556 C 172.115 47.642,171.932 47.960,171.932 48.263 C 171.932 48.566,171.810 48.814,171.661 48.814 C 171.512 48.814,171.390 49.119,171.390 49.492 C 171.390 49.864,171.268 50.169,171.119 50.169 C 170.969 50.169,170.847 50.401,170.847 50.683 C 170.847 50.965,170.664 51.266,170.441 51.352 C 170.217 51.438,170.034 51.756,170.034 52.059 C 170.034 52.362,169.912 52.610,169.763 52.610 C 169.614 52.610,169.492 52.915,169.492 53.288 C 169.492 53.661,169.369 53.966,169.220 53.966 C 169.071 53.966,168.949 54.210,168.949 54.508 C 168.949 54.807,168.827 55.051,168.678 55.051 C 168.529 55.051,168.407 55.356,168.407 55.729 C 168.407 56.151,168.253 56.407,168.000 56.407 C 167.774 56.407,167.593 56.648,167.593 56.949 C 167.593 57.247,167.471 57.492,167.322 57.492 C 167.173 57.492,167.051 57.797,167.051 58.169 C 167.051 58.542,166.929 58.847,166.780 58.847 C 166.631 58.847,166.508 59.153,166.508 59.525 C 166.508 59.947,166.355 60.203,166.102 60.203 C 165.876 60.203,165.695 60.444,165.695 60.746 C 165.695 61.044,165.573 61.288,165.424 61.288 C 165.275 61.288,165.153 61.593,165.153 61.966 C 165.153 62.339,165.031 62.644,164.881 62.644 C 164.732 62.644,164.610 62.949,164.610 63.322 C 164.610 63.744,164.456 64.000,164.203 64.000 C 163.977 64.000,163.797 64.241,163.797 64.542 C 163.797 64.841,163.675 65.085,163.525 65.085 C 163.376 65.085,163.254 65.390,163.254 65.763 C 163.254 66.136,163.132 66.441,162.983 66.441 C 162.834 66.441,162.712 66.746,162.712 67.119 C 162.712 67.540,162.558 67.797,162.305 67.797 C 162.079 67.797,161.898 68.038,161.898 68.339 C 161.898 68.637,161.776 68.881,161.627 68.881 C 161.478 68.881,161.356 69.186,161.356 69.559 C 161.356 69.932,161.234 70.237,161.085 70.237 C 160.936 70.237,160.814 70.468,160.814 70.751 C 160.814 71.033,160.631 71.334,160.407 71.420 C 160.183 71.506,160.000 71.824,160.000 72.127 C 160.000 72.430,159.878 72.678,159.729 72.678 C 159.580 72.678,159.458 72.983,159.458 73.356 C 159.458 73.729,159.336 74.034,159.186 74.034 C 159.037 74.034,158.915 74.263,158.915 74.543 C 158.915 74.823,158.732 75.204,158.508 75.390 C 158.285 75.576,158.102 75.896,158.102 76.101 C 158.102 76.306,157.980 76.475,157.831 76.475 C 157.681 76.475,157.559 76.780,157.559 77.153 C 157.559 77.525,157.437 77.831,157.288 77.831 C 157.139 77.831,157.017 78.075,157.017 78.373 C 157.017 78.671,156.897 78.915,156.751 78.915 C 156.605 78.915,156.408 79.220,156.315 79.593 C 156.221 79.966,156.036 80.271,155.903 80.271 C 155.770 80.271,155.661 80.576,155.661 80.949 C 155.661 81.322,155.539 81.627,155.390 81.627 C 155.241 81.627,155.119 81.871,155.119 82.169 C 155.119 82.468,154.997 82.712,154.847 82.712 C 154.698 82.712,154.576 83.017,154.576 83.390 C 154.576 83.812,154.423 84.068,154.169 84.068 C 153.916 84.068,153.763 84.324,153.763 84.746 C 153.763 85.119,153.641 85.424,153.492 85.424 C 153.342 85.424,153.220 85.668,153.220 85.966 C 153.220 86.264,153.098 86.508,152.949 86.508 C 152.800 86.508,152.678 86.801,152.678 87.157 C 152.678 87.514,152.495 87.877,152.271 87.962 C 152.047 88.048,151.864 88.366,151.864 88.669 C 151.864 88.972,151.742 89.220,151.593 89.220 C 151.444 89.220,151.322 89.464,151.322 89.763 C 151.322 90.061,151.200 90.305,151.051 90.305 C 150.902 90.305,150.780 90.597,150.780 90.954 C 150.780 91.311,150.597 91.673,150.373 91.759 C 150.149 91.845,149.966 92.163,149.966 92.466 C 149.966 92.769,149.844 93.017,149.695 93.017 C 149.546 93.017,149.424 93.261,149.424 93.559 C 149.424 93.858,149.302 94.102,149.153 94.102 C 149.003 94.102,148.881 94.407,148.881 94.780 C 148.881 95.153,148.768 95.458,148.630 95.458 C 148.341 95.458,147.525 96.989,147.525 97.533 C 147.525 97.734,147.403 97.898,147.254 97.898 C 147.105 97.898,146.983 98.203,146.983 98.576 C 146.983 98.949,146.870 99.254,146.732 99.254 C 146.442 99.254,145.627 100.786,145.627 101.330 C 145.627 101.531,145.505 101.695,145.356 101.695 C 145.207 101.695,145.085 102.000,145.085 102.373 C 145.085 102.746,144.993 103.052,144.881 103.053 C 144.609 103.055,143.729 104.623,143.729 105.107 C 143.729 105.318,143.607 105.492,143.458 105.492 C 143.308 105.492,143.186 105.736,143.186 106.034 C 143.186 106.335,143.006 106.576,142.780 106.576 C 142.554 106.576,142.373 106.335,142.373 106.034 C 142.373 105.736,142.251 105.492,142.102 105.492 C 141.953 105.492,141.831 105.186,141.831 104.814 C 141.831 104.441,141.708 104.136,141.559 104.136 C 141.410 104.136,141.288 103.888,141.288 103.585 C 141.288 103.282,141.105 102.964,140.881 102.878 C 140.658 102.792,140.475 102.491,140.475 102.208 C 140.475 101.926,140.353 101.695,140.203 101.695 C 140.054 101.695,139.932 101.390,139.932 101.017 C 139.932 100.644,139.810 100.339,139.661 100.339 C 139.512 100.339,139.390 100.095,139.390 99.797 C 139.390 99.495,139.209 99.254,138.983 99.254 C 138.730 99.254,138.576 98.998,138.576 98.576 C 138.576 98.203,138.454 97.898,138.305 97.898 C 138.156 97.898,138.034 97.593,138.034 97.220 C 138.034 96.847,137.912 96.542,137.763 96.542 C 137.614 96.542,137.492 96.115,137.492 95.593 C 137.492 94.930,137.369 94.644,137.085 94.644 C 136.859 94.644,136.678 94.403,136.678 94.102 C 136.678 93.803,136.556 93.559,136.407 93.559 C 136.258 93.559,136.136 93.254,136.136 92.881 C 136.136 92.508,136.014 92.203,135.864 92.203 C 135.715 92.203,135.593 91.955,135.593 91.653 C 135.593 91.350,135.410 91.031,135.186 90.946 C 134.963 90.860,134.780 90.558,134.780 90.276 C 134.780 89.994,134.658 89.763,134.508 89.763 C 134.359 89.763,134.237 89.458,134.237 89.085 C 134.237 88.712,134.115 88.407,133.966 88.407 C 133.817 88.407,133.695 88.170,133.695 87.880 C 133.695 87.591,133.573 87.279,133.424 87.186 C 133.275 87.094,133.153 86.782,133.153 86.492 C 133.153 86.203,132.969 85.966,132.746 85.966 C 132.493 85.966,132.339 85.710,132.339 85.288 C 132.339 84.915,132.217 84.610,132.068 84.610 C 131.919 84.610,131.797 84.366,131.797 84.068 C 131.797 83.769,131.675 83.525,131.525 83.525 C 131.376 83.525,131.254 83.220,131.254 82.847 C 131.254 82.426,131.101 82.169,130.847 82.169 C 130.594 82.169,130.441 81.913,130.441 81.492 C 130.441 81.119,130.319 80.814,130.169 80.814 C 130.020 80.814,129.898 80.569,129.898 80.271 C 129.898 79.973,129.776 79.729,129.627 79.729 C 129.478 79.729,129.356 79.424,129.356 79.051 C 129.356 78.629,129.202 78.373,128.949 78.373 C 128.696 78.373,128.542 78.117,128.542 77.695 C 128.542 77.322,128.420 77.017,128.271 77.017 C 128.122 77.017,128.000 76.773,128.000 76.475 C 128.000 76.176,127.878 75.932,127.729 75.932 C 127.580 75.932,127.458 75.684,127.458 75.381 C 127.458 75.078,127.275 74.760,127.051 74.674 C 126.827 74.588,126.644 74.226,126.644 73.869 C 126.644 73.512,126.522 73.220,126.373 73.220 C 126.224 73.220,126.102 72.976,126.102 72.678 C 126.102 72.380,125.980 72.136,125.831 72.136 C 125.681 72.136,125.559 71.831,125.559 71.458 C 125.559 71.036,125.406 70.780,125.153 70.780 C 124.927 70.780,124.746 70.539,124.746 70.237 C 124.746 69.939,124.624 69.695,124.475 69.695 C 124.325 69.695,124.203 69.390,124.203 69.017 C 124.203 68.644,124.081 68.339,123.932 68.339 C 123.783 68.339,123.661 68.034,123.661 67.661 C 123.661 67.239,123.507 66.983,123.254 66.983 C 123.028 66.983,122.847 66.742,122.847 66.441 C 122.847 66.142,122.725 65.898,122.576 65.898 C 122.427 65.898,122.305 65.593,122.305 65.220 C 122.305 64.847,122.183 64.542,122.034 64.542 C 121.885 64.542,121.763 64.237,121.763 63.864 C 121.763 63.443,121.609 63.186,121.356 63.186 C 121.130 63.186,120.949 62.945,120.949 62.644 C 120.949 62.346,120.827 62.102,120.678 62.102 C 120.529 62.102,120.407 61.797,120.407 61.424 C 120.407 61.051,120.285 60.746,120.136 60.746 C 119.986 60.746,119.864 60.498,119.864 60.195 C 119.864 59.892,119.681 59.574,119.458 59.488 C 119.234 59.402,119.051 59.101,119.051 58.818 C 119.051 58.536,118.929 58.305,118.780 58.305 C 118.631 58.305,118.508 58.000,118.508 57.627 C 118.508 57.254,118.386 56.949,118.237 56.949 C 118.088 56.949,117.966 56.712,117.966 56.423 C 117.966 56.133,117.844 55.821,117.695 55.729 C 117.546 55.637,117.424 55.324,117.424 55.035 C 117.424 54.745,117.241 54.508,117.017 54.508 C 116.764 54.508,116.610 54.252,116.610 53.831 C 116.610 53.458,116.488 53.153,116.339 53.153 C 116.190 53.153,116.068 52.908,116.068 52.610 C 116.068 52.312,115.946 52.068,115.797 52.068 C 115.647 52.068,115.525 51.763,115.525 51.390 C 115.525 50.968,115.372 50.712,115.119 50.712 C 114.866 50.712,114.712 50.456,114.712 50.034 C 114.712 49.661,114.590 49.356,114.441 49.356 C 114.292 49.356,114.169 49.112,114.169 48.814 C 114.169 48.515,114.047 48.271,113.898 48.271 C 113.749 48.271,113.627 47.966,113.627 47.593 C 113.627 47.171,113.473 46.915,113.220 46.915 C 112.967 46.915,112.814 46.659,112.814 46.237 C 112.814 45.864,112.692 45.559,112.542 45.559 C 112.393 45.559,112.271 45.315,112.271 45.017 C 112.271 44.719,112.149 44.475,112.000 44.475 C 111.851 44.475,111.729 44.169,111.729 43.797 C 111.729 43.375,111.575 43.119,111.322 43.119 C 111.069 43.119,110.915 42.863,110.915 42.441 C 110.915 42.068,110.793 41.763,110.644 41.763 C 110.495 41.763,110.373 41.519,110.373 41.220 C 110.373 40.922,110.251 40.678,110.102 40.678 C 109.953 40.678,109.831 40.373,109.831 40.000 C 109.831 39.578,109.677 39.322,109.424 39.322 C 109.198 39.322,109.017 39.081,109.017 38.780 C 109.017 38.481,108.895 38.237,108.746 38.237 C 108.597 38.237,108.475 37.932,108.475 37.559 C 108.475 37.186,108.353 36.881,108.203 36.881 C 108.054 36.881,107.932 36.576,107.932 36.203 C 107.932 35.782,107.779 35.525,107.525 35.525 C 107.299 35.525,107.119 35.284,107.119 34.983 C 107.119 34.685,106.997 34.441,106.847 34.441 C 106.698 34.441,106.576 34.136,106.576 33.763 C 106.576 33.390,106.454 33.085,106.305 33.085 C 106.156 33.085,106.034 32.780,106.034 32.407 C 106.034 31.985,105.880 31.729,105.627 31.729 C 105.401 31.729,105.220 31.488,105.220 31.186 C 105.220 30.888,105.098 30.644,104.949 30.644 C 104.800 30.644,104.678 30.339,104.678 29.966 C 104.678 29.593,104.556 29.288,104.407 29.288 C 104.258 29.288,104.136 29.051,104.136 28.762 C 104.136 28.472,104.014 28.160,103.864 28.068 C 103.715 27.976,103.593 27.663,103.593 27.374 C 103.593 27.084,103.410 26.847,103.186 26.847 C 102.933 26.847,102.780 26.591,102.780 26.169 C 102.780 25.797,102.658 25.492,102.508 25.492 C 102.359 25.492,102.237 25.255,102.237 24.965 C 102.237 24.676,102.115 24.363,101.966 24.271 C 101.817 24.179,101.695 23.867,101.695 23.577 C 101.695 23.288,101.512 23.051,101.288 23.051 C 101.035 23.051,100.881 22.795,100.881 22.373 C 100.881 22.000,100.759 21.695,100.610 21.695 C 100.461 21.695,100.339 21.451,100.339 21.153 C 100.339 20.854,100.217 20.610,100.068 20.610 C 99.919 20.610,99.797 20.305,99.797 19.932 C 99.797 19.510,99.643 19.254,99.390 19.254 C 99.137 19.254,98.983 18.998,98.983 18.576 C 98.983 18.203,98.861 17.898,98.712 17.898 C 98.563 17.898,98.441 17.654,98.441 17.356 C 98.441 17.058,98.319 16.814,98.169 16.814 C 98.020 16.814,97.898 16.508,97.898 16.136 C 97.898 15.714,97.745 15.458,97.492 15.458 C 97.238 15.458,97.085 15.202,97.085 14.780 C 97.085 14.407,96.963 14.102,96.814 14.102 C 96.664 14.102,96.542 13.858,96.542 13.559 C 96.542 13.261,96.420 13.017,96.271 13.017 C 96.122 13.017,96.000 12.712,96.000 12.339 C 96.000 11.917,95.846 11.661,95.593 11.661 C 95.340 11.661,95.186 11.405,95.186 10.983 C 95.186 10.610,95.064 10.305,94.915 10.305 C 94.766 10.305,94.644 10.061,94.644 9.763 C 94.644 9.464,94.522 9.220,94.373 9.220 C 94.224 9.220,94.102 8.915,94.102 8.542 C 94.102 8.121,93.948 7.864,93.695 7.864 C 93.469 7.864,93.288 7.623,93.288 7.322 C 93.288 7.024,93.166 6.780,93.017 6.780 C 92.868 6.780,92.746 6.475,92.746 6.102 C 92.746 5.729,92.624 5.424,92.475 5.424 C 92.325 5.424,92.203 5.223,92.203 4.979 C 92.203 4.365,90.702 2.983,90.036 2.983 C 89.733 2.983,89.492 2.803,89.492 2.576 C 89.492 2.307,89.222 2.169,88.694 2.169 C 88.255 2.169,87.821 2.047,87.729 1.898 C 87.619 1.720,77.065 1.627,56.949 1.627 C 36.834 1.627,26.280 1.720,26.169 1.898 C 26.077 2.047,25.639 2.169,25.196 2.169 C 24.729 2.169,24.324 2.341,24.234 2.576 C 24.148 2.800,23.909 2.983,23.703 2.983 C 23.138 2.983,22.237 3.853,22.237 4.399 C 22.237 4.664,22.115 4.881,21.966 4.881 C 21.817 4.881,21.695 5.125,21.695 5.424 C 21.695 5.722,21.573 5.966,21.424 5.966 C 21.275 5.966,21.153 6.097,21.153 6.257 C 21.153 6.569,20.486 7.322,20.210 7.322 C 19.930 7.322,18.712 8.634,18.712 8.937 C 18.712 9.093,18.584 9.220,18.428 9.220 C 18.060 9.220,16.814 10.467,16.814 10.835 C 16.814 10.991,16.686 11.119,16.530 11.119 C 16.162 11.119,14.915 12.365,14.915 12.733 C 14.915 12.889,14.788 13.017,14.632 13.017 C 14.264 13.017,13.017 14.264,13.017 14.632 C 13.017 14.788,12.889 14.915,12.733 14.915 C 12.365 14.915,11.119 16.162,11.119 16.530 C 11.119 16.686,10.991 16.814,10.835 16.814 C 10.467 16.814,9.220 18.060,9.220 18.428 C 9.220 18.584,9.093 18.712,8.937 18.712 C 8.569 18.712,7.322 19.959,7.322 20.327 C 7.322 20.483,7.194 20.610,7.039 20.610 C 6.736 20.610,5.424 21.828,5.424 22.109 C 5.424 22.385,4.670 23.051,4.358 23.051 C 4.199 23.051,4.068 23.173,4.068 23.322 C 4.068 23.471,3.886 23.593,3.664 23.593 C 3.075 23.593,2.169 24.451,2.169 25.009 C 2.169 25.275,2.047 25.492,1.898 25.492 C 1.749 25.492,1.627 25.972,1.627 26.560 C 1.627 27.148,1.505 27.704,1.356 27.797 C 0.980 28.029,0.980 264.407,1.356 264.407 C 1.505 264.407,1.631 264.925,1.636 265.559 C 1.644 266.725,2.107 267.661,2.674 267.661 C 2.844 267.661,2.983 267.799,2.983 267.968 C 2.983 268.661,4.466 269.559,5.611 269.559 C 6.236 269.559,6.823 269.681,6.915 269.831 C 7.147 270.205,61.192 270.205,61.424 269.831 C 61.516 269.681,62.072 269.559,62.660 269.559 C 63.248 269.559,63.729 269.437,63.729 269.288 C 63.729 269.139,64.013 269.017,64.361 269.017 C 64.758 269.017,65.128 268.764,65.356 268.339 C 65.555 267.966,65.852 267.661,66.015 267.661 C 66.178 267.661,66.554 267.332,66.851 266.930 C 67.147 266.529,67.621 266.010,67.903 265.778 C 68.185 265.546,68.613 265.129,68.852 264.851 C 69.592 263.994,69.851 263.748,70.599 263.190 C 70.997 262.893,71.322 262.497,71.322 262.309 C 71.322 262.120,71.414 261.966,71.525 261.966 C 71.872 261.965,73.220 260.700,73.220 260.375 C 73.220 260.206,73.312 260.068,73.424 260.067 C 73.699 260.067,75.119 258.832,75.119 258.593 C 75.119 258.354,75.833 257.627,76.068 257.627 C 76.294 257.627,77.017 256.904,77.017 256.678 C 77.017 256.443,77.744 255.729,77.983 255.729 C 78.222 255.729,79.457 254.310,79.457 254.034 C 79.457 253.922,79.596 253.831,79.765 253.831 C 80.090 253.831,81.355 252.482,81.356 252.136 C 81.356 252.024,81.510 251.932,81.698 251.932 C 81.887 251.932,82.283 251.606,82.580 251.207 C 83.423 250.072,84.127 249.492,84.661 249.492 C 84.931 249.492,85.153 249.369,85.153 249.220 C 85.153 249.071,85.369 248.949,85.635 248.949 C 86.181 248.949,87.051 248.049,87.051 247.484 C 87.051 247.277,87.220 247.044,87.427 246.964 C 88.142 246.690,88.213 244.370,88.312 217.966 C 88.377 200.715,88.506 191.458,88.681 191.458 C 88.828 191.458,88.949 191.763,88.949 192.136 C 88.949 192.557,89.103 192.814,89.356 192.814 C 89.609 192.814,89.763 193.070,89.763 193.492 C 89.763 193.864,89.885 194.169,90.034 194.169 C 90.183 194.169,90.305 194.414,90.305 194.712 C 90.305 195.010,90.427 195.254,90.576 195.254 C 90.725 195.254,90.847 195.559,90.847 195.932 C 90.847 196.354,91.001 196.610,91.254 196.610 C 91.507 196.610,91.661 196.866,91.661 197.288 C 91.661 197.661,91.783 197.966,91.932 197.966 C 92.081 197.966,92.203 198.210,92.203 198.508 C 92.203 198.807,92.325 199.051,92.475 199.051 C 92.624 199.051,92.746 199.356,92.746 199.729 C 92.746 200.151,92.899 200.407,93.153 200.407 C 93.406 200.407,93.559 200.663,93.559 201.085 C 93.559 201.458,93.681 201.763,93.831 201.763 C 93.980 201.763,94.102 202.007,94.102 202.305 C 94.102 202.603,94.224 202.847,94.373 202.847 C 94.522 202.847,94.644 203.153,94.644 203.525 C 94.644 203.947,94.798 204.203,95.051 204.203 C 95.304 204.203,95.458 204.460,95.458 204.881 C 95.458 205.254,95.580 205.559,95.729 205.559 C 95.878 205.559,96.000 205.803,96.000 206.102 C 96.000 206.400,96.122 206.644,96.271 206.644 C 96.420 206.644,96.542 206.949,96.542 207.322 C 96.542 207.695,96.664 208.000,96.814 208.000 C 96.963 208.000,97.085 208.244,97.085 208.542 C 97.085 208.844,97.266 209.085,97.492 209.085 C 97.745 209.085,97.898 209.341,97.898 209.763 C 97.898 210.136,98.020 210.441,98.169 210.441 C 98.319 210.441,98.441 210.746,98.441 211.119 C 98.441 211.492,98.563 211.797,98.712 211.797 C 98.861 211.797,98.983 212.041,98.983 212.339 C 98.983 212.640,99.164 212.881,99.390 212.881 C 99.643 212.881,99.797 213.137,99.797 213.559 C 99.797 213.932,99.919 214.237,100.068 214.237 C 100.217 214.237,100.339 214.542,100.339 214.915 C 100.339 215.288,100.461 215.593,100.610 215.593 C 100.759 215.593,100.881 215.837,100.881 216.136 C 100.881 216.437,101.062 216.678,101.288 216.678 C 101.541 216.678,101.695 216.934,101.695 217.356 C 101.695 217.729,101.817 218.034,101.966 218.034 C 102.115 218.034,102.237 218.339,102.237 218.712 C 102.237 219.085,102.359 219.390,102.508 219.390 C 102.658 219.390,102.780 219.634,102.780 219.932 C 102.780 220.234,102.960 220.475,103.186 220.475 C 103.440 220.475,103.593 220.731,103.593 221.153 C 103.593 221.525,103.715 221.831,103.864 221.831 C 104.014 221.831,104.136 222.136,104.136 222.508 C 104.136 222.881,104.258 223.186,104.407 223.186 C 104.556 223.186,104.678 223.431,104.678 223.729 C 104.678 224.030,104.859 224.271,105.085 224.271 C 105.338 224.271,105.492 224.527,105.492 224.949 C 105.492 225.322,105.614 225.627,105.763 225.627 C 105.912 225.627,106.034 225.871,106.034 226.169 C 106.034 226.468,106.156 226.712,106.305 226.712 C 106.454 226.712,106.576 227.017,106.576 227.390 C 106.576 227.812,106.730 228.068,106.983 228.068 C 107.212 228.068,107.390 228.310,107.390 228.622 C 107.390 228.928,107.689 229.477,108.055 229.843 C 108.422 230.209,108.971 230.508,109.276 230.508 C 109.588 230.508,109.831 230.686,109.831 230.915 C 109.831 231.199,110.117 231.322,110.780 231.322 C 111.302 231.322,111.729 231.444,111.729 231.593 C 111.729 231.771,116.921 231.864,126.764 231.864 C 136.494 231.864,141.858 231.769,141.966 231.593 C 142.058 231.444,142.615 231.322,143.202 231.322 C 143.972 231.322,144.271 231.208,144.271 230.915 C 144.271 230.686,144.514 230.508,144.827 230.508 C 145.391 230.508,148.610 227.516,148.610 226.991 C 148.610 226.838,148.738 226.712,148.894 226.712 C 149.050 226.712,149.477 226.412,149.843 226.046 C 150.209 225.680,150.508 225.253,150.508 225.097 C 150.508 224.941,150.637 224.814,150.795 224.814 C 151.314 224.814,160.000 215.831,160.000 215.294 C 160.000 215.011,160.128 214.780,160.284 214.780 C 160.439 214.780,160.867 214.480,161.233 214.114 C 161.599 213.748,161.898 213.321,161.898 213.165 C 161.898 213.009,162.026 212.881,162.182 212.881 C 162.338 212.881,162.765 212.582,163.131 212.216 C 163.497 211.850,163.797 211.422,163.797 211.267 C 163.797 211.111,164.102 210.983,164.475 210.983 C 164.847 210.983,165.153 210.861,165.153 210.712 C 165.153 210.563,165.345 210.441,165.581 210.441 C 166.113 210.441,168.136 208.432,168.136 207.904 C 168.136 207.690,168.319 207.445,168.542 207.360 C 168.766 207.274,168.949 206.956,168.949 206.653 C 168.949 206.350,169.071 206.102,169.220 206.102 C 169.369 206.102,169.492 205.797,169.492 205.424 C 169.492 205.051,169.614 204.746,169.763 204.746 C 169.912 204.746,170.034 204.515,170.034 204.232 C 170.034 203.950,170.217 203.649,170.441 203.563 C 170.664 203.477,170.847 203.159,170.847 202.856 C 170.847 202.553,170.969 202.305,171.119 202.305 C 171.268 202.305,171.390 202.000,171.390 201.627 C 171.390 201.254,171.512 200.949,171.661 200.949 C 171.810 200.949,171.932 200.718,171.932 200.436 C 171.932 200.153,172.115 199.852,172.339 199.766 C 172.563 199.680,172.746 199.362,172.746 199.059 C 172.746 198.756,172.868 198.508,173.017 198.508 C 173.166 198.508,173.288 198.203,173.288 197.831 C 173.288 197.458,173.410 197.153,173.559 197.153 C 173.708 197.153,173.831 196.922,173.831 196.639 C 173.831 196.357,174.014 196.056,174.237 195.970 C 174.461 195.884,174.644 195.566,174.644 195.263 C 174.644 194.960,174.766 194.712,174.915 194.712 C 175.064 194.712,175.186 194.407,175.186 194.034 C 175.186 193.661,175.308 193.356,175.458 193.356 C 175.607 193.356,175.729 193.125,175.729 192.843 C 175.729 192.560,175.912 192.259,176.136 192.173 C 176.359 192.087,176.542 191.769,176.542 191.466 C 176.542 191.163,176.664 190.915,176.814 190.915 C 176.963 190.915,177.085 190.671,177.085 190.373 C 177.085 190.075,177.207 189.831,177.356 189.831 C 177.505 189.831,177.627 189.525,177.627 189.153 C 177.627 188.780,177.749 188.475,177.898 188.475 C 178.047 188.475,178.169 188.169,178.169 187.797 C 178.169 187.375,178.323 187.119,178.576 187.119 C 178.802 187.119,178.983 186.878,178.983 186.576 C 178.983 186.278,179.105 186.034,179.254 186.034 C 179.403 186.034,179.525 185.729,179.525 185.356 C 179.525 184.983,179.647 184.678,179.797 184.678 C 179.946 184.678,180.068 184.373,180.068 184.000 C 180.068 183.578,180.221 183.322,180.475 183.322 C 180.701 183.322,180.881 183.081,180.881 182.780 C 180.881 182.481,181.003 182.237,181.153 182.237 C 181.302 182.237,181.424 181.932,181.424 181.559 C 181.424 181.186,181.546 180.881,181.695 180.881 C 181.844 180.881,181.966 180.576,181.966 180.203 C 181.966 179.782,182.120 179.525,182.373 179.525 C 182.652 179.525,182.780 179.246,182.780 178.636 C 182.780 178.058,182.969 177.610,183.322 177.356 C 183.620 177.141,183.864 176.687,183.864 176.347 C 183.864 175.978,184.029 175.729,184.271 175.729 C 184.497 175.729,184.678 175.488,184.678 175.186 C 184.678 174.888,184.800 174.644,184.949 174.644 C 185.098 174.644,185.220 174.339,185.220 173.966 C 185.220 173.593,185.335 173.288,185.476 173.288 C 185.617 173.288,185.769 172.779,185.815 172.157 C 185.861 171.534,186.051 170.975,186.237 170.914 C 186.508 170.825,186.576 180.284,186.576 217.605 C 186.576 248.625,186.668 264.407,186.847 264.407 C 186.997 264.407,187.119 264.754,187.119 265.179 C 187.119 266.045,187.838 267.661,188.223 267.661 C 188.361 267.661,188.475 267.792,188.475 267.952 C 188.475 268.430,189.211 269.017,189.811 269.017 C 190.120 269.017,190.373 269.139,190.373 269.288 C 190.373 269.437,190.861 269.559,191.458 269.559 C 192.054 269.559,192.542 269.681,192.542 269.831 C 192.542 270.009,201.757 270.102,219.645 270.102 C 237.421 270.102,246.805 270.008,246.915 269.831 C 247.007 269.681,247.625 269.559,248.287 269.559 C 248.950 269.559,249.492 269.437,249.492 269.288 C 249.492 269.139,249.684 269.017,249.918 269.017 C 250.384 269.017,253.017 266.488,253.017 266.040 C 253.017 265.887,253.145 265.763,253.300 265.763 C 253.669 265.763,254.915 264.516,254.915 264.148 C 254.915 263.992,255.043 263.864,255.199 263.864 C 255.567 263.864,256.814 262.618,256.814 262.250 C 256.814 262.094,256.941 261.966,257.097 261.966 C 257.465 261.966,258.712 260.719,258.712 260.351 C 258.712 260.195,258.839 260.068,258.995 260.068 C 259.363 260.068,260.610 258.821,260.610 258.453 C 260.610 258.297,260.738 258.169,260.894 258.169 C 261.262 258.169,262.508 256.923,262.508 256.555 C 262.508 256.399,262.638 256.271,262.796 256.271 C 263.136 256.271,266.847 252.511,266.847 252.167 C 266.847 252.038,266.975 251.932,267.131 251.932 C 267.499 251.932,268.746 250.686,268.746 250.317 C 268.746 250.161,268.929 250.034,269.153 250.034 C 269.376 250.034,269.559 249.912,269.559 249.763 C 269.559 249.614,269.803 249.492,270.102 249.492 C 270.400 249.492,270.644 249.369,270.644 249.220 C 270.644 249.071,270.861 248.949,271.126 248.949 C 271.685 248.949,272.542 248.044,272.542 247.455 C 272.542 247.233,272.725 247.051,272.949 247.051 C 273.232 247.051,273.356 246.766,273.356 246.118 C 273.356 245.604,273.478 245.109,273.627 245.017 C 273.806 244.906,273.898 230.234,273.898 201.882 L 273.898 158.915 321.831 158.907 C 370.736 158.898,370.712 158.898,370.712 157.985 C 370.712 157.744,371.425 157.017,371.661 157.017 C 371.887 157.017,372.610 156.294,372.610 156.068 C 372.610 155.842,373.333 155.119,373.559 155.119 C 373.786 155.119,374.508 154.396,374.508 154.169 C 374.508 153.943,375.231 153.220,375.458 153.220 C 375.684 153.220,376.407 152.497,376.407 152.271 C 376.407 152.045,377.130 151.322,377.356 151.322 C 377.582 151.322,378.305 150.599,378.305 150.373 C 378.305 150.147,379.028 149.424,379.254 149.424 C 379.481 149.424,380.203 148.701,380.203 148.475 C 380.203 148.248,380.926 147.525,381.153 147.525 C 381.379 147.525,382.102 146.803,382.102 146.576 C 382.102 146.350,382.825 145.627,383.051 145.627 C 383.273 145.627,384.000 144.906,384.000 144.685 C 384.000 144.467,385.281 143.186,385.499 143.186 C 385.719 143.186,386.441 142.460,386.441 142.237 C 386.441 142.011,387.164 141.288,387.390 141.288 C 387.616 141.288,388.339 140.565,388.339 140.339 C 388.339 140.113,389.062 139.390,389.288 139.390 C 389.514 139.390,390.237 138.667,390.237 138.441 C 390.237 138.214,390.960 137.492,391.186 137.492 C 391.413 137.492,392.136 136.769,392.136 136.542 C 392.136 136.316,392.858 135.593,393.085 135.593 C 393.311 135.593,394.034 134.870,394.034 134.644 C 394.034 134.339,394.795 133.695,395.167 133.686 C 395.658 133.674,396.475 133.026,396.475 132.648 C 396.475 132.478,396.780 132.339,397.153 132.339 C 397.650 132.339,397.831 132.194,397.831 131.797 C 397.831 131.498,397.953 131.254,398.102 131.254 C 398.251 131.254,398.373 131.084,398.373 130.876 C 398.373 130.669,398.541 130.434,398.748 130.355 C 398.954 130.276,399.216 129.744,399.331 129.173 C 399.662 127.522,399.787 97.356,399.462 97.356 C 399.310 97.356,399.186 96.956,399.186 96.467 C 399.186 94.898,396.801 92.203,395.411 92.203 C 394.952 92.203,394.576 92.082,394.576 91.935 C 394.576 91.761,389.411 91.641,380.019 91.596 L 365.461 91.525 367.265 89.695 C 368.257 88.688,369.194 87.864,369.348 87.864 C 369.502 87.864,369.627 87.730,369.627 87.566 C 369.627 87.403,369.993 86.926,370.441 86.508 C 370.888 86.090,371.254 85.614,371.254 85.451 C 371.254 85.287,371.382 85.153,371.538 85.153 C 371.906 85.153,373.153 83.906,373.153 83.538 C 373.153 83.382,373.280 83.254,373.436 83.254 C 373.804 83.254,375.051 82.008,375.051 81.639 C 375.051 81.484,375.185 81.356,375.349 81.356 C 375.513 81.356,375.989 80.990,376.407 80.542 C 376.825 80.095,377.301 79.729,377.465 79.729 C 377.629 79.729,377.763 79.607,377.763 79.458 C 377.763 79.098,380.937 75.932,381.297 75.932 C 381.452 75.932,382.432 75.078,383.476 74.034 C 384.520 72.990,385.492 72.136,385.636 72.136 C 385.780 72.136,385.898 72.014,385.898 71.865 C 385.898 71.716,386.325 71.142,386.847 70.588 C 387.369 70.035,387.797 69.451,387.797 69.292 C 387.797 69.132,388.041 68.825,388.339 68.610 C 388.637 68.395,388.881 68.063,388.881 67.872 C 388.881 67.682,389.064 67.525,389.288 67.525 C 389.514 67.525,389.695 67.284,389.695 66.983 C 389.695 66.685,389.817 66.441,389.966 66.441 C 390.115 66.441,390.237 66.287,390.237 66.098 C 390.237 65.910,390.542 65.527,390.915 65.247 C 391.288 64.967,391.593 64.511,391.593 64.233 C 391.593 63.956,391.715 63.729,391.864 63.729 C 392.014 63.729,392.136 63.485,392.136 63.186 C 392.136 62.888,392.258 62.644,392.407 62.644 C 392.556 62.644,392.678 62.339,392.678 61.966 C 392.678 61.544,392.832 61.288,393.085 61.288 C 393.338 61.288,393.492 61.032,393.492 60.610 C 393.492 60.237,393.614 59.932,393.763 59.932 C 393.912 59.932,394.034 59.688,394.034 59.390 C 394.034 59.092,394.156 58.847,394.305 58.847 C 394.454 58.847,394.576 58.473,394.576 58.015 C 394.576 57.556,394.759 56.999,394.983 56.775 C 395.207 56.551,395.390 56.079,395.390 55.725 C 395.390 55.372,395.512 55.007,395.661 54.915 C 395.810 54.823,395.932 54.206,395.932 53.543 C 395.932 52.881,396.054 52.339,396.203 52.339 C 396.353 52.339,396.478 51.698,396.483 50.915 C 396.488 50.096,396.661 49.268,396.890 48.965 C 397.482 48.183,397.474 37.920,396.881 37.327 C 396.618 37.064,396.475 36.392,396.475 35.425 C 396.475 34.603,396.353 33.855,396.203 33.763 C 396.054 33.671,395.932 33.053,395.932 32.391 C 395.932 31.728,395.810 31.186,395.661 31.186 C 395.512 31.186,395.390 30.768,395.390 30.257 C 395.390 29.745,395.207 29.144,394.983 28.920 C 394.759 28.696,394.576 28.138,394.576 27.680 C 394.576 27.222,394.454 26.847,394.305 26.847 C 394.156 26.847,394.034 26.611,394.034 26.321 C 394.034 26.032,393.912 25.719,393.763 25.627 C 393.614 25.535,393.492 25.236,393.492 24.962 C 393.492 24.689,393.308 24.395,393.085 24.309 C 392.861 24.223,392.678 23.905,392.678 23.602 C 392.678 23.299,392.556 23.051,392.407 23.051 C 392.258 23.051,392.132 22.837,392.127 22.576 C 392.116 21.990,391.506 21.153,391.089 21.153 C 390.919 21.153,390.780 20.903,390.780 20.598 C 390.780 20.021,389.659 18.712,389.165 18.712 C 389.009 18.712,388.881 18.434,388.881 18.094 C 388.881 17.754,388.637 17.300,388.339 17.085 C 388.041 16.870,387.797 16.538,387.797 16.347 C 387.797 16.156,387.669 16.000,387.513 16.000 C 387.145 16.000,385.898 14.753,385.898 14.385 C 385.898 14.229,385.768 14.102,385.609 14.102 C 385.449 14.102,384.793 13.553,384.150 12.881 C 383.506 12.210,382.835 11.661,382.658 11.661 C 382.481 11.661,381.934 11.234,381.441 10.712 C 380.949 10.190,380.347 9.763,380.104 9.763 C 379.860 9.763,379.661 9.641,379.661 9.492 C 379.661 9.342,379.530 9.220,379.370 9.220 C 379.211 9.220,378.910 9.068,378.702 8.881 C 377.759 8.036,377.487 7.864,377.085 7.864 C 376.849 7.864,376.393 7.620,376.073 7.322 C 375.753 7.024,375.161 6.780,374.758 6.780 C 374.354 6.780,373.954 6.597,373.868 6.373 C 373.782 6.149,373.464 5.966,373.161 5.966 C 372.858 5.966,372.610 5.844,372.610 5.695 C 372.610 5.546,372.305 5.424,371.932 5.424 C 371.559 5.424,371.254 5.302,371.254 5.153 C 371.254 5.003,370.840 4.881,370.334 4.881 C 369.766 4.881,369.354 4.726,369.258 4.475 C 369.155 4.206,368.730 4.068,368.009 4.068 C 367.407 4.068,366.915 3.946,366.915 3.797 C 366.915 3.647,366.366 3.525,365.695 3.525 C 365.024 3.525,364.475 3.403,364.475 3.254 C 364.475 3.105,363.938 2.983,363.283 2.983 C 362.474 2.983,362.042 2.852,361.936 2.576 C 361.823 2.283,361.363 2.169,360.280 2.169 C 359.455 2.169,358.780 2.047,358.780 1.898 C 358.780 1.740,357.881 1.627,356.626 1.627 C 355.442 1.627,354.397 1.505,354.305 1.356 C 354.075 0.984,334.915 0.984,334.915 1.356 M351.186 7.998 C 355.601 8.359,359.012 8.842,361.627 9.475 C 362.224 9.620,363.200 9.853,363.797 9.993 C 365.336 10.354,368.195 11.326,369.627 11.975 C 372.355 13.210,372.817 13.448,374.508 14.488 C 382.827 19.603,387.557 26.187,389.622 35.525 C 390.206 38.168,390.284 47.920,389.739 50.169 C 388.104 56.922,385.290 62.066,380.292 67.440 C 379.670 68.109,378.774 68.942,378.301 69.291 C 377.828 69.640,376.995 70.338,376.450 70.843 C 375.904 71.347,374.542 72.393,373.424 73.168 C 372.305 73.942,370.902 74.913,370.305 75.326 C 368.994 76.235,367.687 77.015,358.780 82.210 C 354.976 84.428,351.681 86.356,351.458 86.495 C 351.234 86.633,350.014 87.390,348.746 88.175 C 346.620 89.493,343.196 91.781,341.326 93.134 C 339.947 94.131,336.542 97.438,336.542 97.780 C 336.542 98.417,337.579 98.441,364.898 98.441 L 392.396 98.441 392.545 99.051 C 392.626 99.386,392.659 105.824,392.617 113.356 L 392.542 127.051 341.559 127.051 L 290.576 127.051 290.648 123.254 C 290.985 105.504,296.802 92.153,307.932 83.583 C 308.827 82.894,309.620 82.253,309.695 82.158 C 310.602 81.002,319.085 75.639,325.424 72.214 C 329.559 69.980,330.718 69.341,330.983 69.151 C 331.132 69.045,332.292 68.431,333.559 67.788 C 334.827 67.145,336.047 66.475,336.271 66.299 C 336.495 66.123,337.715 65.428,338.983 64.754 C 354.385 56.567,358.154 50.892,353.814 42.421 C 349.885 34.752,333.936 32.873,324.648 38.985 C 324.253 39.245,323.735 39.580,323.497 39.729 C 320.313 41.724,318.807 42.963,314.632 47.020 L 311.297 50.260 309.928 48.927 C 309.175 48.193,308.479 47.389,308.381 47.139 C 308.283 46.890,307.532 45.975,306.711 45.105 C 305.890 44.236,304.616 42.793,303.878 41.898 C 303.141 41.003,301.982 39.648,301.303 38.886 C 297.246 34.336,296.506 33.484,296.164 32.973 C 295.956 32.661,295.150 31.736,294.373 30.915 C 293.596 30.095,292.512 28.822,291.964 28.087 L 290.968 26.750 291.993 25.685 C 297.751 19.700,313.182 12.189,324.203 10.008 C 324.949 9.860,326.108 9.626,326.780 9.487 C 334.574 7.880,343.272 7.349,351.186 7.998 M93.125 22.305 C 96.908 29.949,104.606 45.478,110.232 56.814 C 115.858 68.149,122.111 80.780,124.128 84.881 C 126.145 88.983,130.908 98.624,134.713 106.305 C 148.373 133.884,147.066 131.414,147.843 131.115 C 148.071 131.028,150.278 126.905,152.748 121.953 C 155.218 117.001,167.874 91.593,180.873 65.492 C 193.871 39.390,205.575 15.898,206.880 13.288 L 209.253 8.542 237.817 8.473 C 258.700 8.423,266.481 8.486,266.750 8.710 C 267.060 8.967,267.119 27.759,267.119 125.859 L 267.119 242.702 266.508 242.849 C 266.173 242.930,254.244 242.963,240.000 242.922 L 214.102 242.847 214.033 172.846 C 213.972 110.038,213.922 102.809,213.545 102.497 C 212.887 101.950,212.729 102.215,207.721 112.271 C 201.945 123.872,199.972 127.816,199.627 128.453 C 199.480 128.726,195.734 136.271,191.302 145.220 C 186.871 154.169,178.440 171.164,172.568 182.985 L 161.890 204.479 147.589 204.409 L 133.288 204.339 130.260 198.237 C 128.594 194.881,119.214 176.027,109.414 156.339 C 99.615 136.651,89.612 116.503,87.186 111.566 C 82.934 102.916,82.279 101.858,81.647 102.620 C 81.443 102.866,81.337 123.676,81.289 172.909 L 81.220 242.847 54.780 242.847 L 28.339 242.847 28.265 126.237 C 28.224 62.102,28.257 9.353,28.338 9.017 L 28.485 8.407 57.366 8.407 L 86.247 8.407 93.125 22.305 M317.900 67.864 C 318.038 68.276,317.330 68.861,316.678 68.873 C 316.417 68.877,316.203 69.064,316.203 69.288 C 316.203 69.512,316.020 69.695,315.797 69.695 C 315.573 69.695,315.390 69.817,315.390 69.966 C 315.390 70.115,315.146 70.237,314.847 70.237 C 314.549 70.237,314.305 70.359,314.305 70.508 C 314.305 70.658,314.092 70.784,313.831 70.788 C 313.244 70.799,312.407 71.410,312.407 71.827 C 312.407 71.997,312.129 72.136,311.789 72.136 C 311.449 72.136,310.995 72.380,310.780 72.678 C 310.565 72.976,310.238 73.220,310.054 73.220 C 309.870 73.220,309.414 73.525,309.042 73.898 C 308.669 74.271,308.292 74.576,308.204 74.576 C 308.051 74.576,307.672 74.863,306.857 75.593 C 306.650 75.780,306.404 75.932,306.312 75.932 C 306.220 75.932,305.851 76.207,305.492 76.542 C 304.518 77.453,304.041 77.831,303.864 77.831 C 303.589 77.831,302.373 79.148,302.373 79.445 C 302.373 79.601,302.245 79.729,302.089 79.729 C 301.933 79.729,301.516 80.003,301.161 80.339 C 300.806 80.675,300.080 81.297,299.546 81.723 C 299.013 82.149,298.576 82.729,298.576 83.011 C 298.576 83.294,298.449 83.525,298.293 83.525 C 297.925 83.525,296.678 84.772,296.678 85.140 C 296.678 85.296,296.552 85.424,296.397 85.424 C 296.030 85.424,286.644 94.810,286.644 95.177 C 286.644 95.331,286.516 95.458,286.361 95.458 C 285.992 95.458,284.746 96.704,284.746 97.072 C 284.746 97.228,284.618 97.356,284.462 97.356 C 284.094 97.356,282.847 98.603,282.847 98.971 C 282.847 99.127,282.720 99.254,282.564 99.254 C 282.196 99.254,280.949 100.501,280.949 100.869 C 280.949 101.025,280.822 101.153,280.666 101.153 C 280.511 101.153,278.974 102.565,277.251 104.291 C 275.528 106.017,274.068 107.379,274.006 107.317 C 273.945 107.255,273.926 99.406,273.964 89.874 C 274.008 78.936,274.127 72.742,274.286 73.085 C 274.424 73.383,275.370 74.445,276.388 75.445 C 277.405 76.444,278.237 77.434,278.237 77.644 C 278.237 77.854,278.542 78.255,278.915 78.535 C 279.288 78.815,279.593 79.146,279.593 79.270 C 279.593 79.558,280.298 80.269,280.591 80.277 C 280.713 80.280,281.178 80.707,281.625 81.226 C 282.236 81.938,282.649 82.169,283.303 82.169 C 283.781 82.169,284.247 82.292,284.339 82.441 C 284.431 82.590,284.927 82.712,285.440 82.712 C 285.953 82.712,286.373 82.590,286.373 82.441 C 286.373 82.292,286.800 82.169,287.322 82.169 C 287.985 82.169,288.271 82.047,288.271 81.763 C 288.271 81.520,288.521 81.356,288.889 81.356 C 289.229 81.356,289.683 81.112,289.898 80.814 C 290.113 80.515,290.393 80.271,290.520 80.271 C 290.789 80.271,291.525 79.576,291.525 79.322 C 291.525 79.096,292.248 78.373,292.475 78.373 C 292.570 78.373,292.823 78.199,293.036 77.985 C 293.249 77.772,293.424 77.520,293.424 77.424 C 293.424 77.328,293.598 77.075,293.811 76.862 C 294.024 76.649,294.277 76.475,294.373 76.475 C 294.608 76.475,295.322 75.748,295.322 75.509 C 295.322 75.223,296.767 74.035,297.115 74.034 C 297.280 74.034,297.645 73.729,297.925 73.356 C 298.205 72.983,298.536 72.678,298.660 72.678 C 298.983 72.678,299.661 71.957,299.661 71.613 C 299.661 71.453,299.939 71.322,300.279 71.322 C 300.619 71.322,301.073 71.078,301.288 70.780 C 301.503 70.481,301.900 70.237,302.170 70.237 C 302.440 70.237,302.731 70.054,302.817 69.831 C 302.903 69.607,303.204 69.424,303.487 69.424 C 303.769 69.424,304.000 69.302,304.000 69.153 C 304.000 69.003,304.359 68.881,304.798 68.881 C 305.236 68.881,305.671 68.759,305.763 68.610 C 305.855 68.461,306.223 68.339,306.582 68.339 C 306.940 68.339,307.390 68.161,307.583 67.943 C 308.057 67.404,317.720 67.331,317.900 67.864 " stroke="none" fill="#044474" fill-rule="evenodd"></path><path id="path1" d="M337.898 8.009 C 333.823 8.315,330.005 8.822,326.780 9.487 C 326.108 9.626,324.949 9.860,324.203 10.008 C 313.182 12.189,297.751 19.700,291.993 25.685 L 290.968 26.750 291.964 28.087 C 292.512 28.822,293.596 30.095,294.373 30.915 C 295.150 31.736,295.956 32.661,296.164 32.973 C 296.506 33.484,297.246 34.336,301.303 38.886 C 301.982 39.648,303.141 41.003,303.878 41.898 C 304.616 42.793,305.890 44.236,306.711 45.105 C 307.532 45.975,308.283 46.890,308.381 47.139 C 308.479 47.389,309.175 48.193,309.928 48.927 L 311.297 50.260 314.632 47.020 C 318.807 42.963,320.313 41.724,323.497 39.729 C 323.735 39.580,324.253 39.245,324.648 38.985 C 333.936 32.873,349.885 34.752,353.814 42.421 C 358.154 50.892,354.385 56.567,338.983 64.754 C 337.715 65.428,336.495 66.123,336.271 66.299 C 336.047 66.475,334.827 67.145,333.559 67.788 C 332.292 68.431,331.132 69.045,330.983 69.151 C 330.718 69.341,329.559 69.980,325.424 72.214 C 319.085 75.639,310.602 81.002,309.695 82.158 C 309.620 82.253,308.827 82.894,307.932 83.583 C 300.191 89.544,294.284 99.123,292.248 109.017 C 291.265 113.793,290.739 118.474,290.648 123.254 L 290.576 127.051 341.559 127.051 L 392.542 127.051 392.617 113.356 C 392.659 105.824,392.626 99.386,392.545 99.051 L 392.396 98.441 364.898 98.441 C 337.579 98.441,336.542 98.417,336.542 97.780 C 336.542 97.438,339.947 94.131,341.326 93.134 C 343.196 91.781,346.620 89.493,348.746 88.175 C 350.014 87.390,351.234 86.633,351.458 86.495 C 351.681 86.356,354.976 84.428,358.780 82.210 C 367.687 77.015,368.994 76.235,370.305 75.326 C 370.902 74.913,372.305 73.942,373.424 73.168 C 374.542 72.393,375.904 71.347,376.450 70.843 C 376.995 70.338,377.828 69.640,378.301 69.291 C 378.774 68.942,379.670 68.109,380.292 67.440 C 385.290 62.066,388.104 56.922,389.739 50.169 C 390.284 47.920,390.206 38.168,389.622 35.525 C 387.557 26.187,382.827 19.603,374.508 14.488 C 372.817 13.448,372.355 13.210,369.627 11.975 C 368.195 11.326,365.336 10.354,363.797 9.993 C 363.200 9.853,362.224 9.620,361.627 9.475 C 355.105 7.896,346.498 7.364,337.898 8.009 M28.338 9.017 C 28.257 9.353,28.224 62.102,28.265 126.237 L 28.339 242.847 54.780 242.847 L 81.220 242.847 81.289 172.909 C 81.337 123.676,81.443 102.866,81.647 102.620 C 82.279 101.858,82.934 102.916,87.186 111.566 C 89.612 116.503,99.615 136.651,109.414 156.339 C 119.214 176.027,128.594 194.881,130.260 198.237 L 133.288 204.339 147.589 204.409 L 161.890 204.479 172.568 182.985 C 178.440 171.164,186.871 154.169,191.302 145.220 C 195.734 136.271,199.480 128.726,199.627 128.453 C 199.972 127.816,201.945 123.872,207.721 112.271 C 212.729 102.215,212.887 101.950,213.545 102.497 C 213.922 102.809,213.972 110.038,214.033 172.846 L 214.102 242.847 240.000 242.922 C 254.244 242.963,266.173 242.930,266.508 242.849 L 267.119 242.702 267.119 125.859 C 267.119 27.759,267.060 8.967,266.750 8.710 C 266.481 8.486,258.700 8.423,237.817 8.473 L 209.253 8.542 206.880 13.288 C 205.575 15.898,193.871 39.390,180.873 65.492 C 167.874 91.593,155.218 117.001,152.748 121.953 C 150.278 126.905,148.071 131.028,147.843 131.115 C 147.066 131.414,148.373 133.884,134.713 106.305 C 130.908 98.624,126.145 88.983,124.128 84.881 C 122.111 80.780,115.858 68.149,110.232 56.814 C 104.606 45.478,96.908 29.949,93.125 22.305 L 86.247 8.407 57.366 8.407 L 28.485 8.407 28.338 9.017 " stroke="none" fill="#fbfbfb" fill-rule="evenodd"></path></g></svg>