<?xml version="1.0" standalone="no"?>
<!DOCTYPE svg PUBLIC "-//W3C//DTD SVG 20010904//EN"
 "http://www.w3.org/TR/2001/REC-SVG-20010904/DTD/svg10.dtd">
<svg version="1.0" xmlns="http://www.w3.org/2000/svg"
 width="1200.000000pt" height="1200.000000pt" viewBox="0 0 1200.000000 1200.000000"
 preserveAspectRatio="xMidYMid meet">
<g transform="translate(0.000000,1200.000000) scale(0.100000,-0.100000)"
fill="#1b7db9" stroke="none">
<path d="M965 10254 c-54 -20 -111 -78 -130 -132 -13 -41 -15 -480 -15 -4113
0 -3639 2 -4071 15 -4110 9 -24 32 -61 52 -81 69 -70 52 -69 789 -66 653 3
659 3 699 25 47 25 69 59 84 131 8 38 11 930 11 3233 l0 3180 21 -3 c20 -3 90
-221 719 -2253 383 -1237 706 -2269 718 -2292 34 -66 78 -110 140 -140 l57
-28 650 0 c617 0 653 1 700 19 72 28 136 93 172 173 17 38 334 1066 704 2285
636 2092 675 2218 697 2218 l22 0 0 -3160 c0 -2210 3 -3174 11 -3209 15 -71
59 -127 122 -157 l52 -24 636 0 c722 0 699 -2 768 76 22 26 43 63 50 89 16 63
16 8127 0 8190 -7 26 -28 63 -50 89 -71 81 4 76 -1193 76 -722 0 -1073 -4
-1100 -11 -22 -6 -56 -28 -80 -52 l-41 -42 -720 -2377 -720 -2378 -35 0 -35 0
-674 2248 c-371 1236 -692 2301 -712 2367 -43 136 -79 189 -152 224 -43 21
-48 21 -1118 20 -915 0 -1080 -3 -1114 -15z"/>
<path d="M9919 10260 c-110 -17 -225 -52 -300 -91 -201 -105 -317 -256 -375
-494 -25 -98 -28 -129 -28 -290 -1 -174 0 -182 24 -230 20 -38 37 -55 75 -75
49 -25 52 -25 295 -25 243 0 246 0 295 25 38 20 55 37 75 75 22 44 25 64 30
200 3 88 10 159 18 171 6 12 26 27 43 33 43 15 311 14 361 -1 66 -20 73 -40
73 -213 0 -163 -6 -185 -73 -273 -14 -19 -245 -220 -513 -448 -268 -227 -503
-433 -524 -456 -67 -78 -114 -169 -140 -273 -23 -92 -25 -113 -25 -359 0 -333
11 -374 109 -420 46 -21 54 -21 881 -24 945 -3 949 -3 1011 59 55 55 61 89 57
328 -3 235 -11 263 -81 309 l-41 27 -523 5 -524 5 462 395 c293 249 483 419
516 460 66 81 137 220 165 325 20 73 22 103 22 335 0 243 -1 259 -26 351 -41
151 -110 271 -209 365 -94 88 -193 140 -349 182 -91 24 -109 25 -410 28 -173
1 -340 -1 -371 -6z"/>
</g>
</svg>
